<?xml version="1.0" encoding="utf-8"?>
<!-- Generator: Adobe Illustrator 19.2.1, SVG Export Plug-In . SVG Version: 6.00 Build 0)  -->
<svg version="1.1" id="Layer_1" xmlns="http://www.w3.org/2000/svg" xmlns:xlink="http://www.w3.org/1999/xlink" x="0px" y="0px"
	 viewBox="0 0 84 84" style="enable-background:new 0 0 84 84;" xml:space="preserve">
<style type="text/css">
	.st0{fill:#FFFFFF;}
</style>
<g>
	<path class="st0" d="M42,83c-0.5,0-1-0.2-1.3-0.7C39.5,80.8,13,46.4,13,31C13,15,26,2,42,2s29,13,29,29c0,15.4-26.5,49.8-27.7,51.3
		C43,82.8,42.5,83,42,83z M42,5.4C27.8,5.4,16.4,16.9,16.4,31c0,12.5,20.2,40.1,25.6,47.4c5.4-7.3,25.6-35.1,25.6-47.4
		C67.6,16.9,56.2,5.4,42,5.4z"/>
	<path class="st0" d="M42,46.4c-8.4,0-15.4-6.9-15.4-15.4S33.6,15.7,42,15.7S57.4,22.6,57.4,31S50.4,46.4,42,46.4z M42,19.1
		c-6.6,0-12,5.4-12,12s5.4,12,12,12s12-5.4,12-12S48.6,19.1,42,19.1z"/>
</g>
</svg>
