<?xml version="1.0" encoding="utf-8"?>
<!-- Generator: Adobe Illustrator 19.2.1, SVG Export Plug-In . SVG Version: 6.00 Build 0)  -->
<svg version="1.1" id="Layer_1" xmlns="http://www.w3.org/2000/svg" xmlns:xlink="http://www.w3.org/1999/xlink" x="0px" y="0px"
	 viewBox="0 0 84 84" style="enable-background:new 0 0 84 84;" xml:space="preserve">
<style type="text/css">
	.st0{fill:#FFFFFF;}
</style>
<path class="st0" d="M65.7,84C65.7,84,65.7,84,65.7,84c-16.2,0-34.6-16.6-41.8-23.8C16.1,52.4-1.9,32.4,0.2,15.6
	C0.9,9.2,4.5,4.2,10.6,0.4C11.1,0.2,11.7,0,12.3,0c4.8,0,14.4,11.3,18.3,16.8c5.5,7.8,4.7,10,4.5,10.9c-0.9,2.6-2.7,4.2-4.2,5.5
	c-1.3,1.2-2.5,2.2-3.1,3.9c-0.1,0.4,0.5,2.6,4,6.9c5.5,6.8,12.8,12.3,15.1,12.3c1.7-0.6,2.8-1.8,3.9-3.1c1.4-1.5,2.9-3.3,5.5-4.2
	c0.4-0.1,0.8-0.2,1.2-0.2c5.6,0,21.7,13.2,25.5,19.9c0.4,0.7,1.6,2.9,0.5,4.7C79.3,80.4,73.3,84,65.7,84z M12.4,4
	c-5,3.1-7.7,7-8.3,12C2.9,26.5,11.3,42,26.8,57.4C33.6,64.2,51,80,65.7,80c0,0,0,0,0,0c6.1,0,10.8-2.8,14.2-8.5
	c-0.7-4-18.2-18.7-22.4-18.8c-1.6,0.6-2.6,1.7-3.8,3.1c-1.4,1.5-2.9,3.3-5.5,4.2c-0.4,0.2-0.9,0.2-1.4,0.2c-5.3,0-15.4-9.5-20-16.1
	c-2.6-3.7-3.5-6.4-2.8-8.4c0.9-2.6,2.7-4.2,4.2-5.5c1.3-1.2,2.5-2.2,3.1-3.8c0-1.4-3.2-7.2-9.3-14.1C16.9,6.6,13.6,4.3,12.4,4z"/>
</svg>
