<?xml version="1.0" encoding="utf-8"?>
<!-- Generator: Adobe Illustrator 19.2.1, SVG Export Plug-In . SVG Version: 6.00 Build 0)  -->
<svg version="1.1" id="Layer_1" xmlns="http://www.w3.org/2000/svg" xmlns:xlink="http://www.w3.org/1999/xlink" x="0px" y="0px"
	 viewBox="0 0 35.9 35.9" style="enable-background:new 0 0 35.9 35.9;" xml:space="preserve">
<style type="text/css">
	.st0{fill:#6D2512;}
	.st1{fill:#FFFFFF;}
</style>
<polygon class="st0" points="35.9,22.5 13.4,0 0,0 35.9,35.9 "/>
<g>
	<path class="st1" d="M11.5,7.6l2.8-2.8l0.6,0.6l-2.8,2.8L11.5,7.6z"/>
	<path class="st1" d="M15.2,11.3l-0.8-0.8l0.9-3.3l0,0c-0.3,0.4-0.6,0.7-0.8,0.8l-1.3,1.3l-0.5-0.5l2.8-2.8l0.7,0.7l-0.9,3.3l0,0
		c0.3-0.4,0.6-0.6,0.7-0.8L17.5,8L18,8.5L15.2,11.3z"/>
	<path class="st1" d="M19.4,13.9c-0.3,0.3-0.5,0.4-0.9,0.3c-0.3,0-0.7-0.2-1-0.5c-0.3-0.3-0.5-0.6-0.6-1l0.5-0.5
		c0.1,0.3,0.2,0.5,0.3,0.7s0.2,0.3,0.3,0.4c0.1,0.1,0.3,0.2,0.4,0.2c0.1,0,0.2,0,0.3-0.1c0.1-0.1,0.1-0.1,0.1-0.2c0-0.1,0-0.2,0-0.3
		c0-0.1-0.1-0.3-0.2-0.5c-0.1-0.3-0.1-0.5-0.2-0.6c0-0.2,0-0.3,0.1-0.5c0-0.1,0.1-0.3,0.3-0.4c0.2-0.2,0.5-0.4,0.8-0.3
		c0.3,0,0.6,0.2,0.9,0.5c0.1,0.1,0.3,0.3,0.4,0.5c0.1,0.2,0.2,0.4,0.3,0.6l-0.6,0.3c-0.1-0.2-0.2-0.4-0.2-0.5
		c-0.1-0.1-0.2-0.2-0.3-0.3c-0.1-0.1-0.2-0.2-0.3-0.2c-0.1,0-0.2,0-0.3,0.1c-0.1,0.1-0.1,0.1-0.1,0.2s0,0.1,0,0.2
		c0,0.1,0.1,0.3,0.2,0.6c0.1,0.4,0.2,0.7,0.2,0.9S19.6,13.7,19.4,13.9z"/>
	<path class="st1" d="M20.2,16.3l-0.6-0.6l2.3-2.3l-0.8-0.8l0.5-0.5l2.1,2.1l-0.5,0.5L22.5,14L20.2,16.3z"/>
	<path class="st1" d="M25.3,18.6c-0.5,0.5-0.9,0.7-1.4,0.7s-0.9-0.2-1.4-0.6s-0.6-0.9-0.6-1.4s0.3-0.9,0.7-1.4s0.9-0.7,1.4-0.7
		s0.9,0.2,1.4,0.6c0.4,0.4,0.6,0.9,0.6,1.4C26,17.7,25.8,18.1,25.3,18.6z M23.3,16.5c-0.3,0.3-0.5,0.6-0.5,0.9
		c0,0.3,0.1,0.5,0.3,0.8c0.5,0.5,1,0.4,1.6-0.2c0.6-0.6,0.7-1.2,0.2-1.6c-0.2-0.2-0.5-0.3-0.8-0.3C23.9,16.1,23.6,16.2,23.3,16.5z"
		/>
	<path class="st1" d="M28,19.4c-0.2-0.2-0.5-0.3-0.8-0.3c-0.3,0-0.6,0.2-0.9,0.5c-0.6,0.6-0.7,1.2-0.2,1.6c0.2,0.2,0.5,0.4,0.9,0.6
		l-0.5,0.5c-0.3-0.1-0.6-0.3-0.9-0.6c-0.4-0.4-0.6-0.8-0.6-1.3c0-0.5,0.3-0.9,0.7-1.4c0.3-0.3,0.6-0.5,0.9-0.6c0.3-0.1,0.6-0.1,1,0
		c0.3,0.1,0.6,0.3,0.9,0.5c0.3,0.3,0.5,0.6,0.6,1l-0.7,0.3c-0.1-0.2-0.1-0.3-0.2-0.4C28.2,19.6,28.1,19.5,28,19.4z"/>
	<path class="st1" d="M29.2,25.3l-0.7-0.7l0.4-1.9l-0.4-0.1l-1,1L27,23l2.8-2.8l0.6,0.6l-1.3,1.3l0.6-0.1l1.7-0.2l0.7,0.7l-2.2,0.3
		L29.2,25.3z"/>
</g>
</svg>
